<svg width="24" height="28" viewBox="0 0 24 28" fill="none" xmlns="http://www.w3.org/2000/svg">
<path fill-rule="evenodd" clip-rule="evenodd" d="M19.6078 27.9836H6.68221V0H19.6078C21.5926 0 23.1837 1.6075 23.1837 3.57586V24.4077C23.1837 26.3761 21.5926 27.9836 19.6078 27.9836ZM9.99562 16.5343H18.8861V14.8776C18.8861 13.4997 18.0167 12.2859 16.7209 11.843C15.4086 12.942 13.4731 12.942 12.1608 11.843C10.8814 12.2859 9.99562 13.4997 9.99562 14.8776V16.5343ZM14.4408 4.28119C13.0302 4.28119 11.8656 5.42941 11.8656 6.85647C11.8656 8.26713 13.0302 9.43175 14.4408 9.43175C15.8679 9.43175 17.0161 8.26713 17.0161 6.85647C17.0161 5.42941 15.8679 4.28119 14.4408 4.28119ZM0.596677 20.7827C-0.207073 20.7827 -0.19067 21.9965 0.596677 21.9965H2.82749C3.61484 21.9965 3.61484 20.7827 2.82749 20.7827H0.596677ZM0.596677 13.3849C-0.207073 13.3849 -0.19067 14.5987 0.596677 14.5987H2.82749C3.61484 14.5987 3.61484 13.3849 2.82749 13.3849H0.596677ZM0.596677 6.00351C-0.207073 6.00351 -0.19067 7.21734 0.596677 7.21734H2.82749C3.61484 7.21734 3.61484 6.00351 2.82749 6.00351H0.596677ZM19.3782 17.5185H9.50353C9.24108 17.5185 9.01144 17.3052 9.01144 17.0264V14.8776C9.01144 12.9584 10.3073 11.2853 12.1608 10.8096C12.3413 10.7604 12.5053 10.8096 12.6365 10.9408C13.6371 11.925 15.2446 11.925 16.2616 10.9408C16.3764 10.8096 16.5568 10.7604 16.7209 10.8096C18.5744 11.2853 19.8703 12.9584 19.8703 14.8776V17.0264C19.8703 17.3052 19.657 17.5185 19.3782 17.5185ZM14.4408 10.4159C12.4889 10.4159 10.8814 8.80844 10.8814 6.85647C10.8814 4.88811 12.4889 3.29701 14.4408 3.29701C16.4092 3.29701 18.0003 4.88811 18.0003 6.85647C18.0003 8.80844 16.4092 10.4159 14.4408 10.4159ZM19.329 19.9133H9.58555C8.92943 19.9133 8.92943 18.9291 9.58555 18.9291H19.329C19.9687 18.9291 19.9687 19.9133 19.329 19.9133ZM19.329 22.3081H9.58555C8.92943 22.3081 8.92943 21.324 9.58555 21.324H19.329C19.9687 21.324 19.9687 22.3081 19.329 22.3081ZM19.329 24.703H9.58555C8.92943 24.703 8.92943 23.7188 9.58555 23.7188H19.329C19.9687 23.7188 19.9687 24.703 19.329 24.703ZM5.69802 27.9836H4.79586C2.82749 27.9836 1.21999 26.3761 1.21999 24.4077V22.9807H2.82749C3.69685 22.9807 4.41859 22.2589 4.41859 21.3896C4.41859 20.5038 3.69685 19.7985 2.82749 19.7985H1.21999V15.5829H2.82749C3.69685 15.5829 4.41859 14.8776 4.41859 13.9918C4.41859 13.1224 3.69685 12.4007 2.82749 12.4007H1.21999V8.20152H2.82749C3.69685 8.20152 4.41859 7.47979 4.41859 6.61043C4.41859 5.72466 3.69685 5.01933 2.82749 5.01933H1.21999V3.57586C1.21999 1.6075 2.82749 0 4.79586 0H5.69802V27.9836Z" fill="#046895"/>
</svg>
